<?xml version="1.0" encoding="UTF-8" standalone="no"?>
<!DOCTYPE svg PUBLIC "-//W3C//DTD SVG 1.1//EN"
 "http://www.w3.org/Graphics/SVG/1.1/DTD/svg11.dtd">
<!-- Generated by graphviz version 2.40.1 (20161225.0304)
 -->
<!-- Title: owo Pages: 1 -->
<svg width="378pt" height="260pt"
 viewBox="0.00 0.00 377.57 260.00" xmlns="http://www.w3.org/2000/svg" xmlns:xlink="http://www.w3.org/1999/xlink">
<g id="graph0" class="graph" transform="scale(1 1) rotate(0) translate(4 256)">
<title>owo</title>
<polygon fill="#ffffff" stroke="transparent" points="-4,4 -4,-256 373.5734,-256 373.5734,4 -4,4"/>
<!-- SendNode -->
<g id="node1" class="node">
<title>SendNode</title>
<polygon fill="#e3e3e3" stroke="#000000" points="213.8778,-252 130.4998,-252 130.4998,-216 213.8778,-216 213.8778,-252"/>
<text text-anchor="middle" x="172.1888" y="-229.8" font-family="Courier,Inter" font-size="14.00" fill="#000000">SendNode</text>
</g>
<!-- DispatchNode -->
<g id="node2" class="node">
<title>DispatchNode</title>
<polygon fill="#e3e3e3" stroke="#000000" points="230.4722,-180 113.9054,-180 113.9054,-144 230.4722,-144 230.4722,-180"/>
<text text-anchor="middle" x="172.1888" y="-157.8" font-family="Courier,Inter" font-size="14.00" fill="#000000">DispatchNode</text>
</g>
<!-- SendNode&#45;&gt;DispatchNode -->
<g id="edge1" class="edge">
<title>SendNode&#45;&gt;DispatchNode</title>
<path fill="none" stroke="#000000" d="M172.1888,-215.8314C172.1888,-208.131 172.1888,-198.9743 172.1888,-190.4166"/>
<polygon fill="#000000" stroke="#000000" points="175.6889,-190.4132 172.1888,-180.4133 168.6889,-190.4133 175.6889,-190.4132"/>
</g>
<!-- LookupMethodNode -->
<g id="node3" class="node">
<title>LookupMethodNode</title>
<polygon fill="#e3e3e3" stroke="#000000" points="150.5669,-108 -.1893,-108 -.1893,-72 150.5669,-72 150.5669,-108"/>
<text text-anchor="middle" x="75.1888" y="-85.8" font-family="Courier,Inter" font-size="14.00" fill="#000000">LookupMethodNode</text>
</g>
<!-- DispatchNode&#45;&gt;LookupMethodNode -->
<g id="edge2" class="edge">
<title>DispatchNode&#45;&gt;LookupMethodNode</title>
<path fill="none" stroke="#000000" d="M147.7116,-143.8314C135.6493,-134.8779 120.9348,-123.9558 107.9202,-114.2955"/>
<polygon fill="#000000" stroke="#000000" points="109.774,-111.3127 99.6582,-108.1628 105.6018,-116.9335 109.774,-111.3127"/>
</g>
<!-- CallInternalMethodNode -->
<g id="node4" class="node">
<title>CallInternalMethodNode</title>
<polygon fill="#e3e3e3" stroke="#000000" points="369.4581,-108 168.9195,-108 168.9195,-72 369.4581,-72 369.4581,-108"/>
<text text-anchor="middle" x="269.1888" y="-85.8" font-family="Courier,Inter" font-size="14.00" fill="#000000">CallInternalMethodNode</text>
</g>
<!-- DispatchNode&#45;&gt;CallInternalMethodNode -->
<g id="edge3" class="edge">
<title>DispatchNode&#45;&gt;CallInternalMethodNode</title>
<path fill="none" stroke="#000000" d="M196.666,-143.8314C208.7283,-134.8779 223.4428,-123.9558 236.4574,-114.2955"/>
<polygon fill="#000000" stroke="#000000" points="238.7758,-116.9335 244.7194,-108.1628 234.6036,-111.3127 238.7758,-116.9335"/>
</g>
<!-- DirectCallNode -->
<g id="node5" class="node">
<title>DirectCallNode</title>
<polygon fill="#e3e3e3" stroke="#000000" points="335.7699,-36 202.6077,-36 202.6077,0 335.7699,0 335.7699,-36"/>
<text text-anchor="middle" x="269.1888" y="-13.8" font-family="Courier,Inter" font-size="14.00" fill="#000000">DirectCallNode</text>
</g>
<!-- CallInternalMethodNode&#45;&gt;DirectCallNode -->
<g id="edge4" class="edge">
<title>CallInternalMethodNode&#45;&gt;DirectCallNode</title>
<path fill="none" stroke="#000000" d="M269.1888,-71.8314C269.1888,-64.131 269.1888,-54.9743 269.1888,-46.4166"/>
<polygon fill="#000000" stroke="#000000" points="272.6889,-46.4132 269.1888,-36.4133 265.6889,-46.4133 272.6889,-46.4132"/>
</g>
</g>
</svg>
